<?xml version="1.0" encoding="UTF-8"?>
<svg width="400" height="300" viewBox="0 0 400 300" fill="none" xmlns="http://www.w3.org/2000/svg">
  <rect width="400" height="300" fill="#F0FFF4"/>
  <circle cx="200" cy="150" r="90" fill="#C6F6D5"/>
  <path d="M160 120C160 109.477 168.477 101 179 101H221C231.523 101 240 109.477 240 120V180C240 190.523 231.523 199 221 199H179C168.477 199 160 190.523 160 180V120Z" fill="#9AE6B4"/>
  <path d="M180 140H220" stroke="#48BB78" stroke-width="4" stroke-linecap="round"/>
  <path d="M180 160H200" stroke="#48BB78" stroke-width="4" stroke-linecap="round"/>
  <circle cx="170" cy="130" r="3" fill="#48BB78"/>
  <circle cx="180" cy="130" r="3" fill="#48BB78"/>
  <circle cx="190" cy="130" r="3" fill="#48BB78"/>
  <path d="M150 140C150 134.477 154.477 130 160 130H170V150H160C154.477 150 150 145.523 150 140Z" fill="#68D391"/>
  <path d="M230 160C230 165.523 234.477 170 240 170H250V150H240C234.477 150 230 154.477 230 160Z" fill="#68D391"/>
</svg> 