<?xml version="1.0" encoding="UTF-8"?>
<svg width="100" height="100" viewBox="0 0 100 100" xmlns="http://www.w3.org/2000/svg">
  <defs>
    <pattern id="pattern" x="0" y="0" width="50" height="50" patternUnits="userSpaceOnUse">
      <path d="M25 0C11.2 0 0 11.2 0 25s11.2 25 25 25 25-11.2 25-25S38.8 0 25 0zm0 45c-11 0-20-9-20-20s9-20 20-20 20 9 20 20-9 20-20 20z" fill="currentColor" opacity="0.1"/>
      <path d="M25 10c-8.3 0-15 6.7-15 15s6.7 15 15 15 15-6.7 15-15-6.7-15-15-15zm0 25c-5.5 0-10-4.5-10-10s4.5-10 10-10 10 4.5 10 10-4.5 10-10 10z" fill="currentColor" opacity="0.05"/>
    </pattern>
  </defs>
  <rect width="100" height="100" fill="url(#pattern)"/>
</svg> 