<?xml version="1.0" encoding="UTF-8"?>
<svg width="400" height="300" viewBox="0 0 400 300" fill="none" xmlns="http://www.w3.org/2000/svg">
  <rect width="400" height="300" fill="#FFF5F5"/>
  <circle cx="200" cy="150" r="100" fill="#FED7D7"/>
  <path d="M160 150C160 127.909 177.909 110 200 110C222.091 110 240 127.909 240 150C240 172.091 222.091 190 200 190C177.909 190 160 172.091 160 150Z" fill="#FC8181"/>
  <path d="M200 80L215.321 110.679L246 126L215.321 141.321L200 172L184.679 141.321L154 126L184.679 110.679L200 80Z" fill="#FEB2B2"/>
  <path d="M180 140C180 134.477 184.477 130 190 130H210C215.523 130 220 134.477 220 140V160C220 165.523 215.523 170 210 170H190C184.477 170 180 165.523 180 160V140Z" fill="#FFF5F5"/>
  <circle cx="195" cy="150" r="5" fill="#FC8181"/>
  <circle cx="205" cy="150" r="5" fill="#FC8181"/>
</svg> 